<?xml version="1.0" encoding="UTF-8" standalone="no"?>
<!-- Created with Inkscape (http://www.inkscape.org/) -->

<svg
   width="54.351715mm"
   height="54.351723mm"
   viewBox="0 0 205.42381 205.42384"
   version="1.1"
   id="svg1"
   inkscape:version="1.3.2 (091e20ef0f, 2023-11-25)"
   sodipodi:docname="logo.svg"
   inkscape:export-filename="logo.png"
   inkscape:export-xdpi="1000"
   inkscape:export-ydpi="1000"
   xmlns:inkscape="http://www.inkscape.org/namespaces/inkscape"
   xmlns:sodipodi="http://sodipodi.sourceforge.net/DTD/sodipodi-0.dtd"
   xmlns="http://www.w3.org/2000/svg"
   xmlns:svg="http://www.w3.org/2000/svg">
  <sodipodi:namedview
     id="namedview1"
     pagecolor="#d1d1d1"
     bordercolor="#000000"
     borderopacity="0.25"
     inkscape:showpageshadow="2"
     inkscape:pageopacity="0.0"
     inkscape:pagecheckerboard="0"
     inkscape:deskcolor="#d1d1d1"
     inkscape:document-units="mm"
     showgrid="false"
     inkscape:zoom="0.5858332"
     inkscape:cx="166.42963"
     inkscape:cy="302.98727"
     inkscape:window-width="1869"
     inkscape:window-height="1011"
     inkscape:window-x="1417"
     inkscape:window-y="32"
     inkscape:window-maximized="1"
     inkscape:current-layer="layer1"
     inkscape:export-bgcolor="#ffffff00">
    <inkscape:grid
       id="grid1"
       units="mm"
       originx="-438.1298"
       originy="-262.01334"
       spacingx="3.7795277"
       spacingy="3.7795276"
       empcolor="#0099e5"
       empopacity="0.30196078"
       color="#0099e5"
       opacity="0.14901961"
       empspacing="5"
       dotted="false"
       gridanglex="30"
       gridanglez="30"
       visible="false" />
  </sodipodi:namedview>
  <defs
     id="defs1" />
  <g
     inkscape:label="Capa 1"
     inkscape:groupmode="layer"
     id="layer1"
     transform="translate(-438.12978,-262.01333)">
    <g
       id="g8"
       transform="matrix(2.6475367,0,0,2.6475367,330.7065,154.59005)"
       inkscape:export-filename="logo.png"
       inkscape:export-xdpi="1000"
       inkscape:export-ydpi="1000">
      <g
         id="g7"
         transform="matrix(1.0264583,0,0,1.0264583,-2.0999999,-2.1)">
        <path
           style="fill:black;stroke-width:1.02047"
           d="M 41.574804,60.472443 V 68.0315 l 7.559055,3.779527 v -7.559055 l 7.559055,-3.779529 7.559056,-3.779527 7.559055,-3.779528 7.559055,-3.779528 7.559055,-3.779527 -7.559055,-3.779528 z"
           id="path3" />
        <path
           style="fill:black;stroke-width:1.02047"
           d="m 56.692914,68.031498 v 7.559057 l 7.559055,3.779527 v -7.559055 l 7.559055,-3.779529 7.559056,-3.779527 7.559055,-3.779528 7.559055,-3.779528 7.55905,-3.779527 -7.55905,-3.779528 z"
           id="path3-2" />
        <path
           style="fill:black;stroke-width:1.02047"
           d="m 71.811025,83.14961 v -7.559055 l 37.795275,-18.897639 7.55905,3.779527 V 68.0315 L 79.37008,86.929138 Z"
           id="path4" />
        <path
           style="fill:black;stroke-width:1.02047"
           d="m 41.574804,75.590555 v 7.559055 l 7.559055,3.779528 v -7.559055 z"
           id="path5" />
        <path
           style="fill:black;stroke-width:1.02047"
           d="m 56.692914,83.14961 v 7.559055 l 7.559055,3.779528 v -7.559055 z"
           id="path5-7" />
        <path
           style="fill:black;stroke-width:1.02047"
           d="m 71.811025,90.708665 7.559055,3.779528 37.79527,-18.897638 v 7.559055 l -37.79527,18.89764 -7.559055,-3.779529 z"
           id="path6" />
        <path
           style="fill:#e55832;fill-opacity:1;stroke-width:1.02047"
           d="m 41.574804,90.708665 v 7.559056 L 79.37008,117.16536 117.16535,98.267721 V 90.708665 L 79.37008,109.6063 Z"
           id="path7" />
      </g>
    </g>
  </g>
</svg>
